<svg width="23" height="23" viewBox="0 0 23 23" fill="none" xmlns="http://www.w3.org/2000/svg">
<path d="M6.49967 13.1384L5.133 19.0564C5.09068 19.2356 5.10338 19.4234 5.16945 19.5953C5.23552 19.7671 5.35189 19.9151 5.50335 20.0198C5.65481 20.1245 5.83432 20.1811 6.01845 20.1822C6.20258 20.1833 6.38275 20.1288 6.53545 20.0259L11.5298 16.6964L16.5241 20.0259C16.6804 20.1297 16.8646 20.1831 17.0521 20.1789C17.2396 20.1748 17.4213 20.1134 17.5729 20.0029C17.7244 19.8924 17.8385 19.7382 17.8998 19.5609C17.961 19.3837 17.9665 19.1919 17.9156 19.0115L16.2379 13.1412L20.3985 9.39701C20.5318 9.27702 20.6269 9.12061 20.6722 8.94712C20.7175 8.77362 20.711 8.59065 20.6534 8.42083C20.5958 8.25102 20.4897 8.1018 20.3483 7.99164C20.2068 7.88148 20.0361 7.81521 19.8574 7.80102L14.6282 7.3846L12.3654 2.37558C12.2932 2.21429 12.1759 2.07733 12.0277 1.98123C11.8794 1.88512 11.7065 1.83398 11.5298 1.83398C11.3531 1.83398 11.1802 1.88512 11.0319 1.98123C10.8836 2.07733 10.7663 2.21429 10.6942 2.37558L8.43137 7.3846L3.20222 7.8001C3.02653 7.81402 2.85857 7.87826 2.71843 7.98514C2.57829 8.09201 2.47191 8.237 2.41202 8.40275C2.35212 8.56851 2.34125 8.748 2.38069 8.91977C2.42014 9.09155 2.50824 9.24831 2.63445 9.37133L6.49967 13.1384ZM9.11654 9.17045C9.28027 9.15755 9.4375 9.10085 9.57177 9.00628C9.70604 8.91171 9.81239 8.78276 9.87968 8.63295L11.5298 4.98144L13.1799 8.63295C13.2472 8.78276 13.3535 8.91171 13.4878 9.00628C13.6221 9.10085 13.7793 9.15755 13.943 9.17045L17.5863 9.45938L14.586 12.1597C14.3255 12.3945 14.2219 12.7559 14.3173 13.0935L15.4666 17.1155L12.0398 14.8307C11.8894 14.7298 11.7123 14.6758 11.5312 14.6758C11.35 14.6758 11.173 14.7298 11.0226 14.8307L7.44167 17.2183L8.40477 13.0485C8.44008 12.8952 8.43534 12.7353 8.39101 12.5843C8.34667 12.4333 8.26423 12.2962 8.15161 12.1863L5.36506 9.46947L9.11654 9.17045Z" fill="#F3CD03"/>
</svg>
