<svg width="23" height="23" viewBox="0 0 23 23" fill="none" xmlns="http://www.w3.org/2000/svg">
<path d="M20.6125 8.41866C20.5548 8.24885 20.4487 8.09964 20.3072 7.98945C20.1658 7.87926 19.9951 7.81292 19.8163 7.79861L14.5872 7.3831L12.3244 2.37409C12.2523 2.21276 12.1351 2.07573 11.9869 1.97955C11.8387 1.88336 11.6658 1.83213 11.4891 1.83203C11.3124 1.83193 11.1394 1.88298 10.9911 1.979C10.8428 2.07502 10.7254 2.21192 10.6532 2.37317L8.39035 7.3831L3.1612 7.79861C2.98551 7.81253 2.81755 7.87677 2.67741 7.98364C2.53727 8.09052 2.43089 8.23551 2.371 8.40126C2.3111 8.56701 2.30023 8.74651 2.33968 8.91828C2.37913 9.09005 2.46722 9.24682 2.59344 9.36983L6.45774 13.1369L5.09106 19.0549C5.04957 19.234 5.06287 19.4215 5.12924 19.593C5.19561 19.7645 5.31199 19.9121 5.46328 20.0166C5.61457 20.1211 5.79377 20.1777 5.97765 20.1791C6.16152 20.1805 6.34157 20.1266 6.49443 20.0244L11.4888 16.6949L16.4831 20.0244C16.6393 20.1282 16.8236 20.1816 17.0111 20.1774C17.1986 20.1733 17.3803 20.1119 17.5319 20.0014C17.6834 19.8909 17.7975 19.7367 17.8587 19.5595C17.92 19.3822 17.9255 19.1904 17.8746 19.01L16.1969 13.1397L20.3575 9.39551C20.6299 9.1497 20.7299 8.76629 20.6125 8.41866Z" fill="#F3CD03"/>
</svg>
