<svg width="23" height="23" viewBox="0 0 23 23" fill="none" xmlns="http://www.w3.org/2000/svg">
<path d="M20.1379 8.41866C20.0802 8.24885 19.9741 8.09964 19.8326 7.98945C19.6911 7.87926 19.5205 7.81292 19.3417 7.79861L14.1126 7.3831L11.8498 2.37409C11.7777 2.21276 11.6605 2.07573 11.5123 1.97955C11.364 1.88336 11.1912 1.83213 11.0145 1.83203C10.8378 1.83193 10.6648 1.88298 10.5165 1.979C10.3682 2.07502 10.2508 2.21192 10.1786 2.37317L7.91575 7.3831L2.68659 7.79861C2.5109 7.81253 2.34294 7.87677 2.2028 7.98364C2.06267 8.09052 1.95629 8.23551 1.89639 8.40126C1.83649 8.56701 1.82562 8.74651 1.86507 8.91828C1.90452 9.09005 1.99261 9.24682 2.11883 9.36983L5.98313 13.1369L4.61645 19.0549C4.57496 19.234 4.58826 19.4215 4.65463 19.593C4.721 19.7645 4.83738 19.9121 4.98867 20.0166C5.13996 20.1211 5.31916 20.1777 5.50304 20.1791C5.68691 20.1805 5.86696 20.1266 6.01982 20.0244L11.0142 16.6949L16.0085 20.0244C16.1647 20.1282 16.349 20.1816 16.5365 20.1774C16.724 20.1733 16.9057 20.1119 17.0573 20.0014C17.2088 19.8909 17.3229 19.7367 17.3841 19.5595C17.4454 19.3822 17.4509 19.1904 17.3999 19.01L15.7223 13.1397L19.8829 9.39551C20.1553 9.1497 20.2553 8.76629 20.1379 8.41866Z" fill="#F3CD03"/>
</svg>
