<svg width="23" height="23" viewBox="0 0 23 23" fill="none" xmlns="http://www.w3.org/2000/svg">
<path d="M20.6379 8.41866C20.5802 8.24885 20.4741 8.09964 20.3326 7.98945C20.1911 7.87926 20.0205 7.81292 19.8417 7.79861L14.6126 7.3831L12.3498 2.37409C12.2777 2.21276 12.1605 2.07573 12.0123 1.97955C11.864 1.88336 11.6912 1.83213 11.5145 1.83203C11.3378 1.83193 11.1648 1.88298 11.0165 1.979C10.8682 2.07502 10.7508 2.21192 10.6786 2.37317L8.41575 7.3831L3.18659 7.79861C3.0109 7.81253 2.84294 7.87677 2.7028 7.98364C2.56267 8.09052 2.45629 8.23551 2.39639 8.40126C2.33649 8.56701 2.32562 8.74651 2.36507 8.91828C2.40452 9.09005 2.49261 9.24682 2.61883 9.36983L6.48313 13.1369L5.11645 19.0549C5.07496 19.234 5.08826 19.4215 5.15463 19.593C5.221 19.7645 5.33738 19.9121 5.48867 20.0166C5.63996 20.1211 5.81916 20.1777 6.00304 20.1791C6.18691 20.1805 6.36696 20.1266 6.51982 20.0244L11.5142 16.6949L16.5085 20.0244C16.6647 20.1282 16.849 20.1816 17.0365 20.1774C17.224 20.1733 17.4057 20.1119 17.5573 20.0014C17.7088 19.8909 17.8229 19.7367 17.8841 19.5595C17.9454 19.3822 17.9509 19.1904 17.8999 19.01L16.2223 13.1397L20.3829 9.39551C20.6553 9.1497 20.7553 8.76629 20.6379 8.41866Z" fill="#F3CD03"/>
</svg>
