<svg width="23" height="23" viewBox="0 0 23 23" fill="none" xmlns="http://www.w3.org/2000/svg">
<path d="M21.1125 8.41866C21.0548 8.24885 20.9487 8.09964 20.8072 7.98945C20.6658 7.87926 20.4951 7.81292 20.3163 7.79861L15.0872 7.3831L12.8244 2.37409C12.7523 2.21276 12.6351 2.07573 12.4869 1.97955C12.3387 1.88336 12.1658 1.83213 11.9891 1.83203C11.8124 1.83193 11.6394 1.88298 11.4911 1.979C11.3428 2.07502 11.2254 2.21192 11.1532 2.37317L8.89035 7.3831L3.6612 7.79861C3.48551 7.81253 3.31755 7.87677 3.17741 7.98364C3.03727 8.09052 2.93089 8.23551 2.871 8.40126C2.8111 8.56701 2.80023 8.74651 2.83968 8.91828C2.87913 9.09005 2.96722 9.24682 3.09344 9.36983L6.95774 13.1369L5.59106 19.0549C5.54957 19.234 5.56287 19.4215 5.62924 19.593C5.69561 19.7645 5.81199 19.9121 5.96328 20.0166C6.11457 20.1211 6.29377 20.1777 6.47765 20.1791C6.66152 20.1805 6.84157 20.1266 6.99443 20.0244L11.9888 16.6949L16.9831 20.0244C17.1393 20.1282 17.3236 20.1816 17.5111 20.1774C17.6986 20.1733 17.8803 20.1119 18.0319 20.0014C18.1834 19.8909 18.2975 19.7367 18.3587 19.5595C18.42 19.3822 18.4255 19.1904 18.3746 19.01L16.6969 13.1397L20.8575 9.39551C21.1299 9.1497 21.2299 8.76629 21.1125 8.41866Z" fill="#F3CD03"/>
</svg>
