<svg width="23" height="23" viewBox="0 0 23 23" fill="none" xmlns="http://www.w3.org/2000/svg">
<path d="M20.5969 8.41866C20.5392 8.24885 20.4331 8.09964 20.2916 7.98945C20.1501 7.87926 19.9795 7.81292 19.8007 7.79861L14.5716 7.3831L12.3087 2.37409C12.2367 2.21276 12.1195 2.07573 11.9712 1.97955C11.823 1.88336 11.6501 1.83213 11.4734 1.83203C11.2968 1.83193 11.1238 1.88298 10.9755 1.979C10.8272 2.07502 10.7098 2.21192 10.6375 2.37317L8.37473 7.3831L3.14558 7.79861C2.96989 7.81253 2.80193 7.87677 2.66179 7.98364C2.52165 8.09052 2.41527 8.23551 2.35537 8.40126C2.29548 8.56701 2.2846 8.74651 2.32405 8.91828C2.3635 9.09005 2.4516 9.24682 2.57781 9.36983L6.44212 13.1369L5.07544 19.0549C5.03394 19.234 5.04724 19.4215 5.11361 19.593C5.17999 19.7645 5.29637 19.9121 5.44765 20.0166C5.59894 20.1211 5.77815 20.1777 5.96202 20.1791C6.1459 20.1805 6.32594 20.1266 6.47881 20.0244L11.4731 16.6949L16.4675 20.0244C16.6237 20.1282 16.808 20.1816 16.9955 20.1774C17.183 20.1733 17.3647 20.1119 17.5162 20.0014C17.6678 19.8909 17.7819 19.7367 17.8431 19.5595C17.9044 19.3822 17.9099 19.1904 17.8589 19.01L16.1813 13.1397L20.3419 9.39551C20.6143 9.1497 20.7143 8.76629 20.5969 8.41866Z" fill="#F3CD03"/>
</svg>
