<svg width="23" height="23" viewBox="0 0 23 23" fill="none" xmlns="http://www.w3.org/2000/svg">
<path d="M20.6242 8.41866C20.5666 8.24885 20.4604 8.09964 20.319 7.98945C20.1775 7.87926 20.0068 7.81292 19.8281 7.79861L14.5989 7.3831L12.3361 2.37409C12.264 2.21276 12.1468 2.07573 11.9986 1.97955C11.8504 1.88336 11.6775 1.83213 11.5008 1.83203C11.3241 1.83193 11.1511 1.88298 11.0028 1.979C10.8545 2.07502 10.7371 2.21192 10.6649 2.37317L8.40207 7.3831L3.17292 7.79861C2.99723 7.81253 2.82927 7.87677 2.68913 7.98364C2.54899 8.09052 2.44261 8.23551 2.38272 8.40126C2.32282 8.56701 2.31195 8.74651 2.3514 8.91828C2.39084 9.09005 2.47894 9.24682 2.60515 9.36983L6.46946 13.1369L5.10278 19.0549C5.06128 19.234 5.07458 19.4215 5.14096 19.593C5.20733 19.7645 5.32371 19.9121 5.475 20.0166C5.62628 20.1211 5.80549 20.1777 5.98937 20.1791C6.17324 20.1805 6.35329 20.1266 6.50615 20.0244L11.5005 16.6949L16.4948 20.0244C16.6511 20.1282 16.8353 20.1816 17.0228 20.1774C17.2103 20.1733 17.3921 20.1119 17.5436 20.0014C17.6951 19.8909 17.8092 19.7367 17.8705 19.5595C17.9317 19.3822 17.9372 19.1904 17.8863 19.01L16.2087 13.1397L20.3692 9.39551C20.6416 9.1497 20.7416 8.76629 20.6242 8.41866Z" fill="#F3CD03"/>
</svg>
