<svg width="24" height="23" viewBox="0 0 24 23" fill="none" xmlns="http://www.w3.org/2000/svg">
<path d="M21.1242 8.41866C21.0666 8.24885 20.9604 8.09964 20.819 7.98945C20.6775 7.87926 20.5068 7.81292 20.3281 7.79861L15.0989 7.3831L12.8361 2.37409C12.764 2.21276 12.6468 2.07573 12.4986 1.97955C12.3504 1.88336 12.1775 1.83213 12.0008 1.83203C11.8241 1.83193 11.6511 1.88298 11.5028 1.979C11.3545 2.07502 11.2371 2.21192 11.1649 2.37317L8.90207 7.3831L3.67292 7.79861C3.49723 7.81253 3.32927 7.87677 3.18913 7.98364C3.04899 8.09052 2.94261 8.23551 2.88272 8.40126C2.82282 8.56701 2.81195 8.74651 2.8514 8.91828C2.89084 9.09005 2.97894 9.24682 3.10515 9.36983L6.96946 13.1369L5.60278 19.0549C5.56128 19.234 5.57458 19.4215 5.64096 19.593C5.70733 19.7645 5.82371 19.9121 5.975 20.0166C6.12628 20.1211 6.30549 20.1777 6.48937 20.1791C6.67324 20.1805 6.85329 20.1266 7.00615 20.0244L12.0005 16.6949L16.9948 20.0244C17.1511 20.1282 17.3353 20.1816 17.5228 20.1774C17.7103 20.1733 17.8921 20.1119 18.0436 20.0014C18.1951 19.8909 18.3092 19.7367 18.3705 19.5595C18.4317 19.3822 18.4372 19.1904 18.3863 19.01L16.7087 13.1397L20.8692 9.39551C21.1416 9.1497 21.2416 8.76629 21.1242 8.41866Z" fill="#F3CD03"/>
</svg>
