<svg width="40" height="40" viewBox="0 0 40 40" fill="none" xmlns="http://www.w3.org/2000/svg">
<path d="M0 20C0 8.95431 8.95431 0 20 0C31.0457 0 40 8.95431 40 20C40 31.0457 31.0457 40 20 40C8.95431 40 0 31.0457 0 20Z" fill="white"/>
<path d="M20.0002 15.9532L18.6358 14.5566L18.6352 14.556C18.2873 14.2018 17.8723 13.9204 17.4144 13.7283C16.9566 13.5362 16.465 13.4372 15.9685 13.4372C15.472 13.4372 14.9804 13.5362 14.5225 13.7283C14.0647 13.9203 13.6498 14.2017 13.3019 14.5559C12.5879 15.2808 12.1877 16.2575 12.1877 17.275C12.1877 18.2926 12.588 19.2693 13.3021 19.9943L13.3024 19.9946L19.7774 26.5508L19.9997 26.776L20.2221 26.5508L26.6971 19.9946L26.6974 19.9943C27.4115 19.2693 27.8117 18.2926 27.8117 17.275C27.8117 16.2575 27.4116 15.2809 26.6976 14.5559C26.3499 14.2015 25.935 13.92 25.4771 13.7279C25.0193 13.5359 24.5278 13.4372 24.0314 13.4375C24.0312 13.4375 24.031 13.4375 24.0307 13.4375L24.031 13.75M20.0002 15.9532L21.3571 14.5695L21.3579 14.5687L21.581 14.7875M20.0002 15.9532L21.3563 14.5704M20.0002 15.9532L21.3563 14.5704M24.031 13.75C23.5738 13.7493 23.1213 13.8409 22.7003 14.0192C22.2793 14.1974 21.8986 14.4587 21.581 14.7875M24.031 13.75C24.486 13.7496 24.9366 13.8401 25.3562 14.0161C25.7758 14.1921 26.1561 14.4501 26.4747 14.775L24.031 13.75ZM21.581 14.7875L21.3563 14.5704M21.581 14.7875L21.3563 14.5704M24.0307 12.8125L24.0309 12.8125C24.6108 12.8127 25.1849 12.9283 25.7196 13.1526C26.2544 13.3769 26.7391 13.7054 27.1456 14.119C27.9745 14.9629 28.4389 16.0984 28.4389 17.2813C28.4389 18.4639 27.9746 19.5993 27.146 20.4431C27.1458 20.4432 27.1457 20.4434 27.1456 20.4435L19.9997 27.6802L12.8539 20.4435C12.8538 20.4434 12.8537 20.4433 12.8536 20.4432C12.0249 19.5994 11.5605 18.464 11.5605 17.2813C11.5605 16.0985 12.0249 14.9629 12.8538 14.1191C13.2604 13.7058 13.7452 13.3774 14.2799 13.1533C14.8147 12.9292 15.3887 12.8138 15.9685 12.8138C16.5483 12.8138 17.1223 12.9292 17.6571 13.1533C18.1918 13.3774 18.6766 13.7058 19.0832 14.1191L19.084 14.12L19.7778 14.82L19.9997 15.0439L20.2217 14.82L20.9155 14.12L20.9166 14.1188C21.3226 13.7047 21.8072 13.3759 22.3419 13.1516C22.8767 12.9273 23.4508 12.812 24.0307 12.8125Z" fill="#BDBDBD" stroke="#252B42" stroke-width="0.625"/>
</svg>
